<?xml version="1.0" encoding="UTF-8" standalone="no"?>
<!-- Created with Inkscape (http://www.inkscape.org/) -->

<svg
   width="240mm"
   height="280mm"
   viewBox="0 0 240 280"
   version="1.1"
   id="svg5"
   sodipodi:docname="system_model.svg"
   inkscape:version="1.3 (0e150ed6c4, 2023-07-21)"
   xmlns:inkscape="http://www.inkscape.org/namespaces/inkscape"
   xmlns:sodipodi="http://sodipodi.sourceforge.net/DTD/sodipodi-0.dtd"
   xmlns="http://www.w3.org/2000/svg"
   xmlns:svg="http://www.w3.org/2000/svg">
  <sodipodi:namedview
     id="namedview7"
     pagecolor="#ffffff"
     bordercolor="#000000"
     borderopacity="0.25"
     inkscape:showpageshadow="2"
     inkscape:pageopacity="0.0"
     inkscape:pagecheckerboard="0"
     inkscape:deskcolor="#d1d1d1"
     inkscape:document-units="mm"
     showgrid="true"
     showguides="true"
     inkscape:zoom="0.72515434"
     inkscape:cx="458.52308"
     inkscape:cy="563.32835"
     inkscape:window-width="1920"
     inkscape:window-height="1017"
     inkscape:window-x="-8"
     inkscape:window-y="-8"
     inkscape:window-maximized="1"
     inkscape:current-layer="layer1">
    <inkscape:grid
       id="grid1"
       units="mm"
       originx="0"
       originy="0"
       spacingx="1"
       spacingy="1"
       empcolor="#0099e5"
       empopacity="0.30196078"
       color="#0099e5"
       opacity="0.14901961"
       empspacing="5"
       dotted="false"
       gridanglex="30"
       gridanglez="30"
       visible="true" />
  </sodipodi:namedview>
  <defs
     id="defs2">
    <marker
       style="overflow:visible"
       id="marker2697"
       refX="0"
       refY="0"
       orient="auto-start-reverse"
       inkscape:stockid="Arrow1"
       markerWidth="4.0606599"
       markerHeight="6.7071061"
       viewBox="0 0 4.0606602 6.7071068"
       inkscape:isstock="true"
       inkscape:collect="always"
       preserveAspectRatio="xMidYMid">
      <path
         style="fill:none;stroke:context-stroke;stroke-width:1;stroke-linecap:butt"
         d="M 3,-3 0,0 3,3"
         id="path2695"
         transform="rotate(180,0.125,0)"
         sodipodi:nodetypes="ccc" />
    </marker>
    <marker
       style="overflow:visible"
       id="marker2697-3"
       refX="0"
       refY="0"
       orient="auto-start-reverse"
       inkscape:stockid="Arrow1"
       markerWidth="4.0606599"
       markerHeight="6.7071061"
       viewBox="0 0 4.0606602 6.7071068"
       inkscape:isstock="true"
       inkscape:collect="always"
       preserveAspectRatio="xMidYMid">
      <path
         style="fill:none;stroke:context-stroke;stroke-width:1;stroke-linecap:butt"
         d="M 3,-3 0,0 3,3"
         id="path2695-3"
         transform="rotate(180,0.125,0)"
         sodipodi:nodetypes="ccc" />
    </marker>
    <marker
       style="overflow:visible"
       id="marker2697-7-2-0"
       refX="0"
       refY="0"
       orient="auto-start-reverse"
       inkscape:stockid="Arrow1"
       markerWidth="4.0606599"
       markerHeight="6.7071061"
       viewBox="0 0 4.0606602 6.7071068"
       inkscape:isstock="true"
       inkscape:collect="always"
       preserveAspectRatio="xMidYMid">
      <path
         style="fill:none;stroke:context-stroke;stroke-width:1;stroke-linecap:butt"
         d="M 3,-3 0,0 3,3"
         id="path2695-4-9-5"
         transform="rotate(180,0.125,0)"
         sodipodi:nodetypes="ccc" />
    </marker>
    <marker
       style="overflow:visible"
       id="marker2697-7-2-0-5"
       refX="0"
       refY="0"
       orient="auto-start-reverse"
       inkscape:stockid="Arrow1"
       markerWidth="4.0606599"
       markerHeight="6.7071061"
       viewBox="0 0 4.0606602 6.7071068"
       inkscape:isstock="true"
       inkscape:collect="always"
       preserveAspectRatio="xMidYMid">
      <path
         style="fill:none;stroke:context-stroke;stroke-width:1;stroke-linecap:butt"
         d="M 3,-3 0,0 3,3"
         id="path2695-4-9-5-5"
         transform="rotate(180,0.125,0)"
         sodipodi:nodetypes="ccc" />
    </marker>
    <marker
       style="overflow:visible"
       id="marker2697-7-2-2-8"
       refX="0"
       refY="0"
       orient="auto-start-reverse"
       inkscape:stockid="Arrow1"
       markerWidth="4.0606599"
       markerHeight="6.7071061"
       viewBox="0 0 4.0606602 6.7071068"
       inkscape:isstock="true"
       inkscape:collect="always"
       preserveAspectRatio="xMidYMid">
      <path
         style="fill:none;stroke:context-stroke;stroke-width:1;stroke-linecap:butt"
         d="M 3,-3 0,0 3,3"
         id="path2695-4-9-9-3"
         transform="rotate(180,0.125,0)"
         sodipodi:nodetypes="ccc" />
    </marker>
    <marker
       style="overflow:visible"
       id="marker2697-8"
       refX="0"
       refY="0"
       orient="auto-start-reverse"
       inkscape:stockid="Arrow1"
       markerWidth="4.0606599"
       markerHeight="6.7071061"
       viewBox="0 0 4.0606602 6.7071068"
       inkscape:isstock="true"
       inkscape:collect="always"
       preserveAspectRatio="xMidYMid">
      <path
         style="fill:none;stroke:context-stroke;stroke-width:1;stroke-linecap:butt"
         d="M 3,-3 0,0 3,3"
         id="path2695-7"
         transform="rotate(180,0.125,0)"
         sodipodi:nodetypes="ccc" />
    </marker>
    <clipPath
       clipPathUnits="userSpaceOnUse"
       id="clipPath164">
      <path
         d="M 0,500 H 500 V 0 H 0 Z"
         transform="translate(-317.17771,-190.1445)"
         id="path164" />
    </clipPath>
    <clipPath
       clipPathUnits="userSpaceOnUse"
       id="clipPath166">
      <path
         d="M 0,500 H 500 V 0 H 0 Z"
         id="path166" />
    </clipPath>
    <clipPath
       clipPathUnits="userSpaceOnUse"
       id="clipPath168">
      <path
         d="M 0,500 H 500 V 0 H 0 Z"
         transform="translate(-256.90921,-324.72711)"
         id="path168" />
    </clipPath>
    <clipPath
       clipPathUnits="userSpaceOnUse"
       id="clipPath176">
      <path
         d="M 0,500 H 500 V 0 H 0 Z"
         transform="translate(-215.90581,-210.45701)"
         id="path176" />
    </clipPath>
    <clipPath
       clipPathUnits="userSpaceOnUse"
       id="clipPath178">
      <path
         d="M 0,500 H 500 V 0 H 0 Z"
         id="path178" />
    </clipPath>
    <clipPath
       clipPathUnits="userSpaceOnUse"
       id="clipPath256">
      <path
         d="M 0,500 H 500 V 0 H 0 Z"
         transform="translate(-183.6406,-210.45701)"
         id="path256" />
    </clipPath>
    <clipPath
       clipPathUnits="userSpaceOnUse"
       id="clipPath260">
      <path
         d="M 0,500 H 500 V 0 H 0 Z"
         transform="translate(-97.405802,-309.76901)"
         id="path260" />
    </clipPath>
    <clipPath
       clipPathUnits="userSpaceOnUse"
       id="clipPath264">
      <path
         d="M 0,500 H 500 V 0 H 0 Z"
         transform="translate(-179.8809,-251.7969)"
         id="path264" />
    </clipPath>
    <clipPath
       clipPathUnits="userSpaceOnUse"
       id="clipPath266">
      <path
         d="M 0,500 H 500 V 0 H 0 Z"
         id="path266" />
    </clipPath>
    <clipPath
       clipPathUnits="userSpaceOnUse"
       id="clipPath164-8">
      <path
         d="M 0,500 H 500 V 0 H 0 Z"
         transform="translate(-317.17771,-190.1445)"
         id="path164-4" />
    </clipPath>
    <clipPath
       clipPathUnits="userSpaceOnUse"
       id="clipPath166-6">
      <path
         d="M 0,500 H 500 V 0 H 0 Z"
         id="path166-6" />
    </clipPath>
    <clipPath
       clipPathUnits="userSpaceOnUse"
       id="clipPath168-0">
      <path
         d="M 0,500 H 500 V 0 H 0 Z"
         transform="translate(-256.90921,-324.72711)"
         id="path168-4" />
    </clipPath>
    <clipPath
       clipPathUnits="userSpaceOnUse"
       id="clipPath176-0">
      <path
         d="M 0,500 H 500 V 0 H 0 Z"
         transform="translate(-215.90581,-210.45701)"
         id="path176-0" />
    </clipPath>
    <clipPath
       clipPathUnits="userSpaceOnUse"
       id="clipPath178-8">
      <path
         d="M 0,500 H 500 V 0 H 0 Z"
         id="path178-4" />
    </clipPath>
    <clipPath
       clipPathUnits="userSpaceOnUse"
       id="clipPath256-7">
      <path
         d="M 0,500 H 500 V 0 H 0 Z"
         transform="translate(-183.6406,-210.45701)"
         id="path256-3" />
    </clipPath>
    <clipPath
       clipPathUnits="userSpaceOnUse"
       id="clipPath260-5">
      <path
         d="M 0,500 H 500 V 0 H 0 Z"
         transform="translate(-97.405802,-309.76901)"
         id="path260-8" />
    </clipPath>
    <clipPath
       clipPathUnits="userSpaceOnUse"
       id="clipPath264-8">
      <path
         d="M 0,500 H 500 V 0 H 0 Z"
         transform="translate(-179.8809,-251.7969)"
         id="path264-8" />
    </clipPath>
    <clipPath
       clipPathUnits="userSpaceOnUse"
       id="clipPath266-8">
      <path
         d="M 0,500 H 500 V 0 H 0 Z"
         id="path266-1" />
    </clipPath>
  </defs>
  <g
     inkscape:label="Layer 1"
     inkscape:groupmode="layer"
     id="layer1">
    <g
       id="base_station"
       transform="translate(26.45833,-47.624993)">
      <path
         style="fill:none;fill-opacity:0.5;stroke:#000000;stroke-width:1;stroke-miterlimit:0;stroke-opacity:1"
         d="M 89.958332,148.16666 95.249999,127 l 5.291671,21.16666"
         id="base_station_outer" />
      <path
         style="fill:none;fill-opacity:0.5;stroke:#000000;stroke-width:0.499999;stroke-miterlimit:0;stroke-dasharray:none;stroke-opacity:1"
         d="m 89.958332,146.84375 9.260417,-2.64584 -6.614583,-3.96875 5.291666,-2.64583 -3.96875,-2.64583"
         id="base_station_inner" />
      <circle
         style="opacity:1;fill:none;fill-opacity:1;stroke:#000000;stroke-width:0.5;stroke-miterlimit:0;stroke-dasharray:2,1;stroke-opacity:1;stroke-dashoffset:0"
         id="base_station_coverage"
         cy="137.58333"
         cx="95.250175"
         r="68.791496" />
    </g>
    <g
       id="base_station-2"
       transform="translate(-21.16667,37.041673)">
      <path
         style="fill:none;fill-opacity:0.5;stroke:#000000;stroke-width:1;stroke-miterlimit:0;stroke-opacity:1"
         d="M 89.958332,148.16666 95.249999,127 l 5.291671,21.16666"
         id="base_station_outer-0" />
      <path
         style="fill:none;fill-opacity:0.5;stroke:#000000;stroke-width:0.499999;stroke-miterlimit:0;stroke-dasharray:none;stroke-opacity:1"
         d="m 89.958332,146.84375 9.260417,-2.64584 -6.614583,-3.96875 5.291666,-2.64583 -3.96875,-2.64583"
         id="base_station_inner-5" />
      <circle
         style="opacity:1;fill:none;fill-opacity:1;stroke:#000000;stroke-width:0.5;stroke-miterlimit:0;stroke-dasharray:2, 1;stroke-opacity:1;stroke-dashoffset:0"
         id="base_station_coverage-6"
         cy="137.58333"
         cx="95.250175"
         r="68.791496" />
    </g>
    <g
       id="base_station-4"
       transform="translate(74.083335,37.041673)">
      <path
         style="fill:none;fill-opacity:0.5;stroke:#000000;stroke-width:1;stroke-miterlimit:0;stroke-opacity:1"
         d="M 89.958332,148.16666 95.249999,127 l 5.291671,21.16666"
         id="base_station_outer-5" />
      <path
         style="fill:none;fill-opacity:0.5;stroke:#000000;stroke-width:0.499999;stroke-miterlimit:0;stroke-dasharray:none;stroke-opacity:1"
         d="m 89.958332,146.84375 9.260417,-2.64584 -6.614583,-3.96875 5.291666,-2.64583 -3.96875,-2.64583"
         id="base_station_inner-0" />
      <circle
         style="opacity:1;fill:none;fill-opacity:1;stroke:#000000;stroke-width:0.5;stroke-miterlimit:0;stroke-dasharray:2, 1;stroke-opacity:1;stroke-dashoffset:0"
         id="base_station_coverage-9"
         cy="137.58333"
         cx="95.250175"
         r="68.791496" />
    </g>
    <g
       id="embb_user_2"
       transform="matrix(0.07349081,0,0,0.07349081,209.92919,176.14615)"
       style="display:inline;stroke-width:0.993321;stroke-dasharray:none;paint-order:fill markers stroke"
       inkscape:label="embb_user_2">
      <rect
         style="display:inline;fill:#000000;fill-opacity:1;stroke:none;stroke-width:0.993321;stroke-dasharray:none;stroke-opacity:1;paint-order:normal;stop-color:#000000"
         id="dynamic_island-6"
         width="27.19771"
         height="8.0999603"
         x="34.026146"
         y="6.7034149"
         ry="4.0499802"
         transform="translate(-5.6696445e-7,1.3040179e-5)" />
      <rect
         style="display:inline;fill:none;fill-opacity:1;stroke:#000000;stroke-width:4.08214;stroke-dasharray:none;stroke-opacity:1;paint-order:stroke fill markers;stop-color:#000000"
         id="border-7"
         width="93.286369"
         height="192.61667"
         x="156.33011"
         y="0.26458648"
         ry="16.195105"
         transform="translate(-155.34831,1.3040179e-5)" />
    </g>
    <g
       id="embb_user_1"
       transform="matrix(0.07349081,0,0,0.07349081,110.92489,133.95369)"
       style="display:inline;stroke-width:0.993321;stroke-dasharray:none;paint-order:fill markers stroke"
       inkscape:label="embb_user_1">
      <rect
         style="display:inline;fill:#000000;fill-opacity:1;stroke:none;stroke-width:0.993321;stroke-dasharray:none;stroke-opacity:1;paint-order:normal;stop-color:#000000"
         id="dynamic_island-3"
         width="27.19771"
         height="8.0999603"
         x="34.026146"
         y="6.7034149"
         ry="4.0499802"
         transform="translate(-5.6696445e-7,1.3040179e-5)" />
      <rect
         style="display:inline;fill:none;fill-opacity:1;stroke:#000000;stroke-width:4.08214;stroke-dasharray:none;stroke-opacity:1;paint-order:stroke fill markers;stop-color:#000000"
         id="border-3"
         width="93.286369"
         height="192.61667"
         x="156.33011"
         y="0.26458648"
         ry="16.195105"
         transform="translate(-155.34831,1.3040179e-5)" />
    </g>
    <g
       id="embb_user_0"
       transform="matrix(0.07349081,0,0,0.07349081,51.295956,142.54072)"
       style="display:inline;stroke-width:0.993321;stroke-dasharray:none;paint-order:fill markers stroke"
       inkscape:label="embb_user_0">
      <rect
         style="display:inline;fill:#000000;fill-opacity:1;stroke:none;stroke-width:0.993321;stroke-dasharray:none;stroke-opacity:1;paint-order:normal;stop-color:#000000"
         id="dynamic_island"
         width="27.19771"
         height="8.0999603"
         x="34.026146"
         y="6.7034149"
         ry="4.0499802"
         transform="translate(-5.6696445e-7,1.3040179e-5)" />
      <rect
         style="display:inline;fill:none;fill-opacity:1;stroke:#000000;stroke-width:4.08214307;stroke-dasharray:none;stroke-opacity:1;paint-order:stroke fill markers;stop-color:#000000"
         id="border"
         width="93.286369"
         height="192.61667"
         x="156.33011"
         y="0.26458648"
         ry="16.195105"
         transform="translate(-155.34831,1.3040179e-5)" />
    </g>
    <g
       id="urllc_user_1"
       transform="matrix(0.05400938,0,0,0.05400938,127.5745,47.650521)">
      <g
         id="layer-MC4"
         inkscape:groupmode="layer"
         inkscape:label="urllc_user"
         style="display:inline">
        <path
           id="outer_border"
           d="m 0,0 h -275.375 c -4.209,0 -7.621,3.412 -7.621,7.62 v 194.252 c 0,4.208 3.412,7.62 7.621,7.62 H 0 c 4.209,0 7.62,-3.412 7.62,-7.62 V 7.62 C 7.62,3.412 4.209,0 0,0"
           style="display:inline;fill:#1a1a1a;fill-opacity:1;fill-rule:nonzero;stroke:#1a2e35 icc-color(Adobe-RGB-1998, 0.14898682, 0.19599915, 0.21998596);stroke-width:1;stroke-linecap:butt;stroke-linejoin:miter;stroke-miterlimit:10;stroke-dasharray:none;stroke-opacity:1"
           transform="matrix(1.3333333,0,0,-1.3333333,422.9036,413.14067)"
           clip-path="url(#clipPath164)" />
        <path
           id="road_background"
           d="M 299.466,210.457 H 59.513 v 168.867 h 239.953 z"
           style="display:inline;fill:#ffffff icc-color(Adobe-RGB-1998, 1, 1, 1);fill-opacity:1;fill-rule:nonzero;stroke:none"
           transform="matrix(1.3333333,0,0,-1.3333333,0,666.66667)"
           clip-path="url(#clipPath166)" />
        <path
           id="road"
           d="M 0,0 -5.991,12.893 H 25.781 L 33.019,0 Z m 5.406,-23.208 h -40.021 l -3.614,18.695 h 35.435 z m 14.14,-32.233 h -47.93 l -5.11,26.431 H 7.951 Z m -93.689,0 -0.393,26.431 h 35.514 l 4.421,-26.431 z M -74.9,-4.513 h 31.779 l 3.128,-18.695 h -34.63 z m -0.259,17.406 h 29.127 L -43.875,0 h -31.093 z m -0.125,8.381 h 27.85 l 0.863,-5.157 h -28.637 z m 61.178,0 2.262,-5.157 h -30.373 l -0.997,5.157 z M -10.43,12.893 -4.773,0 h -34.329 l -2.492,12.893 z m 31.507,8.381 2.896,-5.157 H -7.489 l -2.397,5.157 z M -79.562,16.117 h -28.775 l 0.882,5.157 h 27.951 z M -79.742,0 h -31.351 l 2.205,12.893 h 29.29 z M -80,-23.208 h -35.062 l 3.198,18.695 h 32.072 z m -0.36,-32.233 h -40.213 l 4.52,26.431 h 35.988 z m -46.43,0 h -39.207 l 9.138,26.431 h 35.277 z m -70.227,32.233 10.494,18.695 h 33.242 l -6.95,-18.695 z m 20.265,36.101 h 29.942 L -151.604,0 h -32.386 z m 4.704,8.381 h 28.353 l -1.917,-5.157 h -29.331 z m 55.292,-25.787 -3.683,-18.695 h -34.414 l 6.463,18.695 z m -25.616,17.406 h 29.046 L -115.867,0 h -30.963 z m 2.897,8.381 h 27.8 l -1.016,-5.157 h -28.566 z M 42.558,-4.513 V 0 H 37.793 L 30.22,12.893 h 12.338 v 3.224 H 28.327 l -3.029,5.157 h 17.26 v 3.223 H 23.404 l -6.058,10.315 h -3.868 l 5.79,-10.315 h -30.651 l -4.794,10.315 h -3.867 l 4.524,-10.315 h -28.317 l -1.994,10.315 h -3.868 l 1.726,-10.315 h -27.359 l -0.153,10.315 h -3.869 l -0.114,-10.315 h -27.436 l 1.764,10.315 h -3.868 l -2.032,-10.315 h -27.32 l 3.566,10.315 h -3.868 l -3.835,-10.315 h -27.742 l 5.79,10.315 h -3.867 l -6.059,-10.315 h -23.021 v -3.223 h 21.128 l -3.029,-5.157 h -18.099 v -3.224 h 16.206 L -188.764,0 h -8.632 v -4.513 h 5.982 l -5.982,-10.183 V -29.01 h 35.008 l -9.825,-26.431 h -25.183 v -9.67 h 21.588 l -18.275,-49.159 h 7.748 l 16.995,49.159 h 40.645 l -9.686,-49.159 h 7.748 l 8.406,49.159 h 41.759 l -0.548,-49.159 h 7.747 L -74,-65.111 h 41.017 l 8.223,-49.159 h 7.748 l -9.503,49.159 h 50.303 l 18.77,-42.788 v 16.316 l -12.302,26.472 h 12.302 v 9.67 H 25.763 L 13.48,-29.01 h 29.078 v 5.802 H 10.784 L 2.097,-4.513 h 33.455 l 7.006,-12.479 v 8.881 l -2.115,3.598 z"
           style="display:inline;fill:#b2b2b2 icc-color(Adobe-RGB-1998, 0.68998718, 0.68998718, 0.68998718);fill-opacity:1;fill-rule:nonzero;stroke:none"
           transform="matrix(1.3333333,0,0,-1.3333333,342.5456,233.6972)"
           clip-path="url(#clipPath168)" />
        <path
           id="speed_display"
           d="M 0,0 H 83.56 V 29.819 H 13.905 C 6.226,29.819 0,23.594 0,15.914 Z"
           style="display:inline;fill:#ffffff icc-color(Adobe-RGB-1998, 1, 1, 1);fill-opacity:1;fill-rule:nonzero;stroke:#1a2e35 icc-color(Adobe-RGB-1998, 0.14898682, 0.19599915, 0.21998596);stroke-width:1;stroke-linecap:round;stroke-linejoin:round;stroke-miterlimit:10;stroke-dasharray:none;stroke-opacity:1"
           transform="matrix(1.3333333,0,0,-1.3333333,287.8744,386.05733)"
           clip-path="url(#clipPath176)" />
        <path
           id="sky"
           d="M 299.466,355.656 H 59.513 v 23.668 h 239.953 z"
           style="display:inline;fill:#00ffff;fill-opacity:1;fill-rule:nonzero;stroke:#1a2e35 icc-color(Adobe-RGB-1998, 0.14898682, 0.19599915, 0.21998596);stroke-width:1;stroke-linecap:round;stroke-linejoin:round;stroke-miterlimit:10;stroke-dasharray:none;stroke-opacity:1"
           transform="matrix(1.3333333,0,0,-1.3333333,0,666.66667)"
           clip-path="url(#clipPath178)" />
        <path
           id="path"
           d="m 0,0 -1.354,91.063 h -55.659 l 0.934,4.562 -16.594,-8.104 13.121,-8.875 1.353,6.614 H -6.796 L -7.748,0 Z"
           style="fill:#ffffff icc-color(Adobe-RGB-1998, 1, 1, 1);fill-opacity:1;fill-rule:nonzero;stroke:#1a2e35 icc-color(Adobe-RGB-1998, 0.14898682, 0.19599915, 0.21998596);stroke-width:1;stroke-linecap:round;stroke-linejoin:round;stroke-miterlimit:10;stroke-dasharray:none;stroke-opacity:1"
           transform="matrix(1.3333333,0,0,-1.3333333,244.85413,386.05733)"
           clip-path="url(#clipPath256)" />
        <path
           id="destination"
           d="m 0,0 c -2.167,0 -3.924,1.757 -3.924,3.924 0,2.167 1.757,3.924 3.924,3.924 2.167,0 3.924,-1.757 3.924,-3.924 C 3.924,1.757 2.167,0 0,0 m 0,13.734 c -5.418,0 -9.81,-4.392 -9.81,-9.81 0,-5.418 9.81,-17.266 9.81,-17.266 0,0 9.81,11.848 9.81,17.266 0,5.418 -4.392,9.81 -9.81,9.81"
           style="display:inline;fill:#ff0000;fill-opacity:1;fill-rule:nonzero;stroke:none"
           transform="matrix(1.3333333,0,0,-1.3333333,129.8744,253.64133)"
           clip-path="url(#clipPath260)" />
        <path
           id="car"
           d="m 0,0 -17.235,-29.852 h 34.47 z"
           style="fill:#1a1a1a;fill-opacity:1;fill-rule:nonzero;stroke:none"
           transform="matrix(1.3333333,0,0,-1.3333333,239.8412,330.93747)"
           clip-path="url(#clipPath264)" />
        <path
           id="inner_border"
           d="M 299.466,210.457 H 59.513 v 168.867 h 239.953 z"
           style="display:inline;fill:none;stroke:#1a2e35 icc-color(Adobe-RGB-1998, 0.14898682, 0.19599915, 0.21998596);stroke-width:1;stroke-linecap:round;stroke-linejoin:round;stroke-miterlimit:10;stroke-dasharray:none;stroke-opacity:1"
           transform="matrix(1.3333333,0,0,-1.3333333,0,666.66667)"
           clip-path="url(#clipPath266)" />
        <text
           xml:space="preserve"
           style="font-size:12px;fill:none;stroke-width:1.88976;stroke-miterlimit:0;stroke-dasharray:7.55906, 3.77953"
           x="299.21484"
           y="359.11719"
           id="speed_label"><tspan
             sodipodi:role="line"
             id="tspan290"
             x="299.21484"
             y="359.11719"
             style="font-size:12px;fill:#1a1a1a">Speed</tspan></text>
        <text
           xml:space="preserve"
           style="font-size:12px;fill:#1a1a1a;stroke-width:1.88976;stroke-miterlimit:0;stroke-dasharray:7.55906, 3.77953"
           x="298.9043"
           y="374.11719"
           id="speed_value"><tspan
             sodipodi:role="line"
             id="tspan291"
             x="298.9043"
             y="374.11719">50 KM/H</tspan></text>
      </g>
    </g>
    <g
       id="urllc_user_0"
       transform="matrix(0.05400938,0,0,0.05400938,118.5745,181.80858)">
      <g
         id="layer-MC4-2"
         inkscape:groupmode="layer"
         inkscape:label="urllc_user"
         style="display:inline">
        <path
           id="outer_border-6"
           d="m 0,0 h -275.375 c -4.209,0 -7.621,3.412 -7.621,7.62 v 194.252 c 0,4.208 3.412,7.62 7.621,7.62 H 0 c 4.209,0 7.62,-3.412 7.62,-7.62 V 7.62 C 7.62,3.412 4.209,0 0,0"
           style="display:inline;fill:#1a1a1a;fill-opacity:1;fill-rule:nonzero;stroke:#1a2e35 icc-color(Adobe-RGB-1998, 0.14898682, 0.19599915, 0.21998596);stroke-width:1;stroke-linecap:butt;stroke-linejoin:miter;stroke-miterlimit:10;stroke-dasharray:none;stroke-opacity:1"
           transform="matrix(1.3333333,0,0,-1.3333333,422.9036,413.14067)"
           clip-path="url(#clipPath164-8)" />
        <path
           id="road_background-9"
           d="M 299.466,210.457 H 59.513 v 168.867 h 239.953 z"
           style="display:inline;fill:#ffffff icc-color(Adobe-RGB-1998, 1, 1, 1);fill-opacity:1;fill-rule:nonzero;stroke:none"
           transform="matrix(1.3333333,0,0,-1.3333333,0,666.66667)"
           clip-path="url(#clipPath166-6)" />
        <path
           id="road-5"
           d="M 0,0 -5.991,12.893 H 25.781 L 33.019,0 Z m 5.406,-23.208 h -40.021 l -3.614,18.695 h 35.435 z m 14.14,-32.233 h -47.93 l -5.11,26.431 H 7.951 Z m -93.689,0 -0.393,26.431 h 35.514 l 4.421,-26.431 z M -74.9,-4.513 h 31.779 l 3.128,-18.695 h -34.63 z m -0.259,17.406 h 29.127 L -43.875,0 h -31.093 z m -0.125,8.381 h 27.85 l 0.863,-5.157 h -28.637 z m 61.178,0 2.262,-5.157 h -30.373 l -0.997,5.157 z M -10.43,12.893 -4.773,0 h -34.329 l -2.492,12.893 z m 31.507,8.381 2.896,-5.157 H -7.489 l -2.397,5.157 z M -79.562,16.117 h -28.775 l 0.882,5.157 h 27.951 z M -79.742,0 h -31.351 l 2.205,12.893 h 29.29 z M -80,-23.208 h -35.062 l 3.198,18.695 h 32.072 z m -0.36,-32.233 h -40.213 l 4.52,26.431 h 35.988 z m -46.43,0 h -39.207 l 9.138,26.431 h 35.277 z m -70.227,32.233 10.494,18.695 h 33.242 l -6.95,-18.695 z m 20.265,36.101 h 29.942 L -151.604,0 h -32.386 z m 4.704,8.381 h 28.353 l -1.917,-5.157 h -29.331 z m 55.292,-25.787 -3.683,-18.695 h -34.414 l 6.463,18.695 z m -25.616,17.406 h 29.046 L -115.867,0 h -30.963 z m 2.897,8.381 h 27.8 l -1.016,-5.157 h -28.566 z M 42.558,-4.513 V 0 H 37.793 L 30.22,12.893 h 12.338 v 3.224 H 28.327 l -3.029,5.157 h 17.26 v 3.223 H 23.404 l -6.058,10.315 h -3.868 l 5.79,-10.315 h -30.651 l -4.794,10.315 h -3.867 l 4.524,-10.315 h -28.317 l -1.994,10.315 h -3.868 l 1.726,-10.315 h -27.359 l -0.153,10.315 h -3.869 l -0.114,-10.315 h -27.436 l 1.764,10.315 h -3.868 l -2.032,-10.315 h -27.32 l 3.566,10.315 h -3.868 l -3.835,-10.315 h -27.742 l 5.79,10.315 h -3.867 l -6.059,-10.315 h -23.021 v -3.223 h 21.128 l -3.029,-5.157 h -18.099 v -3.224 h 16.206 L -188.764,0 h -8.632 v -4.513 h 5.982 l -5.982,-10.183 V -29.01 h 35.008 l -9.825,-26.431 h -25.183 v -9.67 h 21.588 l -18.275,-49.159 h 7.748 l 16.995,49.159 h 40.645 l -9.686,-49.159 h 7.748 l 8.406,49.159 h 41.759 l -0.548,-49.159 h 7.747 L -74,-65.111 h 41.017 l 8.223,-49.159 h 7.748 l -9.503,49.159 h 50.303 l 18.77,-42.788 v 16.316 l -12.302,26.472 h 12.302 v 9.67 H 25.763 L 13.48,-29.01 h 29.078 v 5.802 H 10.784 L 2.097,-4.513 h 33.455 l 7.006,-12.479 v 8.881 l -2.115,3.598 z"
           style="display:inline;fill:#b2b2b2 icc-color(Adobe-RGB-1998, 0.68998718, 0.68998718, 0.68998718);fill-opacity:1;fill-rule:nonzero;stroke:none"
           transform="matrix(1.3333333,0,0,-1.3333333,342.5456,233.6972)"
           clip-path="url(#clipPath168-0)" />
        <path
           id="speed_display-6"
           d="M 0,0 H 83.56 V 29.819 H 13.905 C 6.226,29.819 0,23.594 0,15.914 Z"
           style="display:inline;fill:#ffffff icc-color(Adobe-RGB-1998, 1, 1, 1);fill-opacity:1;fill-rule:nonzero;stroke:#1a2e35 icc-color(Adobe-RGB-1998, 0.14898682, 0.19599915, 0.21998596);stroke-width:1;stroke-linecap:round;stroke-linejoin:round;stroke-miterlimit:10;stroke-dasharray:none;stroke-opacity:1"
           transform="matrix(1.3333333,0,0,-1.3333333,287.8744,386.05733)"
           clip-path="url(#clipPath176-0)" />
        <path
           id="sky-2"
           d="M 299.466,355.656 H 59.513 v 23.668 h 239.953 z"
           style="display:inline;fill:#00ffff;fill-opacity:1;fill-rule:nonzero;stroke:#1a2e35 icc-color(Adobe-RGB-1998, 0.14898682, 0.19599915, 0.21998596);stroke-width:1;stroke-linecap:round;stroke-linejoin:round;stroke-miterlimit:10;stroke-dasharray:none;stroke-opacity:1"
           transform="matrix(1.3333333,0,0,-1.3333333,0,666.66667)"
           clip-path="url(#clipPath178-8)" />
        <path
           id="path-3"
           d="m 0,0 -1.354,91.063 h -55.659 l 0.934,4.562 -16.594,-8.104 13.121,-8.875 1.353,6.614 H -6.796 L -7.748,0 Z"
           style="fill:#ffffff icc-color(Adobe-RGB-1998, 1, 1, 1);fill-opacity:1;fill-rule:nonzero;stroke:#1a2e35 icc-color(Adobe-RGB-1998, 0.14898682, 0.19599915, 0.21998596);stroke-width:1;stroke-linecap:round;stroke-linejoin:round;stroke-miterlimit:10;stroke-dasharray:none;stroke-opacity:1"
           transform="matrix(1.3333333,0,0,-1.3333333,244.85413,386.05733)"
           clip-path="url(#clipPath256-7)" />
        <path
           id="destination-6"
           d="m 0,0 c -2.167,0 -3.924,1.757 -3.924,3.924 0,2.167 1.757,3.924 3.924,3.924 2.167,0 3.924,-1.757 3.924,-3.924 C 3.924,1.757 2.167,0 0,0 m 0,13.734 c -5.418,0 -9.81,-4.392 -9.81,-9.81 0,-5.418 9.81,-17.266 9.81,-17.266 0,0 9.81,11.848 9.81,17.266 0,5.418 -4.392,9.81 -9.81,9.81"
           style="display:inline;fill:#ff0000;fill-opacity:1;fill-rule:nonzero;stroke:none"
           transform="matrix(1.3333333,0,0,-1.3333333,129.8744,253.64133)"
           clip-path="url(#clipPath260-5)" />
        <path
           id="car-2"
           d="m 0,0 -17.235,-29.852 h 34.47 z"
           style="fill:#1a1a1a;fill-opacity:1;fill-rule:nonzero;stroke:none"
           transform="matrix(1.3333333,0,0,-1.3333333,239.8412,330.93747)"
           clip-path="url(#clipPath264-8)" />
        <path
           id="inner_border-9"
           d="M 299.466,210.457 H 59.513 v 168.867 h 239.953 z"
           style="display:inline;fill:none;stroke:#1a2e35 icc-color(Adobe-RGB-1998, 0.14898682, 0.19599915, 0.21998596);stroke-width:1;stroke-linecap:round;stroke-linejoin:round;stroke-miterlimit:10;stroke-dasharray:none;stroke-opacity:1"
           transform="matrix(1.3333333,0,0,-1.3333333,0,666.66667)"
           clip-path="url(#clipPath266-8)" />
        <text
           xml:space="preserve"
           style="font-size:12px;fill:none;stroke-width:1.88976;stroke-miterlimit:0;stroke-dasharray:7.55906, 3.77953"
           x="299.21484"
           y="359.11719"
           id="speed_label-9"><tspan
             sodipodi:role="line"
             id="tspan290-2"
             x="299.21484"
             y="359.11719"
             style="font-size:12px;fill:#1a1a1a">Speed</tspan></text>
        <text
           xml:space="preserve"
           style="font-size:12px;fill:#1a1a1a;stroke-width:1.88976;stroke-miterlimit:0;stroke-dasharray:7.55906, 3.77953"
           x="298.9043"
           y="374.11719"
           id="speed_value-5"><tspan
             sodipodi:role="line"
             id="tspan291-1"
             x="298.9043"
             y="374.11719">50 KM/H</tspan></text>
      </g>
    </g>
    <path
       style="opacity:1;fill:none;fill-opacity:1;stroke:#ff0000;stroke-width:0.75;stroke-miterlimit:0;stroke-dasharray:none;stroke-opacity:1;marker-end:url(#marker2697)"
       d="m 121.70833,79.375 7.40834,-9.789583"
       id="urllc_user_1_link"
       sodipodi:nodetypes="cc" />
    <path
       style="fill:none;fill-opacity:1;stroke:#ff0000;stroke-width:0.75;stroke-miterlimit:0;stroke-dasharray:none;stroke-opacity:1;marker-end:url(#marker2697-3)"
       d="m 169.33333,164.04167 -26.9875,24.60625"
       id="urllc_user_0_link"
       sodipodi:nodetypes="cc" />
    <path
       style="fill:none;fill-opacity:1;stroke:#ff0000;stroke-width:0.75;stroke-miterlimit:0;stroke-dasharray:none;stroke-opacity:1;marker-end:url(#marker2697-8)"
       d="m 195.79167,58.208333 h 15.875"
       id="urllc_traffic-4"
       sodipodi:nodetypes="cc"
       inkscape:label="urllc_user_link" />
    <path
       style="fill:#000000;stroke:#0000ff;stroke-width:0.75;stroke-linejoin:miter;paint-order:normal;stroke-opacity:1;stroke-dasharray:none;marker-end:url(#marker2697-7-2-0-5)"
       d="m 169.33333,164.04166 39.6875,13.22917"
       id="path1594"
       inkscape:label="embb_user_2_link" />
    <path
       style="fill:none;fill-opacity:1;stroke:#0000ff;stroke-width:0.75;stroke-miterlimit:0;stroke-dasharray:none;stroke-opacity:1;marker-end:url(#marker2697-7-2-0)"
       d="M 74.083333,164.04167 110.19443,147.39572"
       id="urllc_traffic-3-0-2"
       sodipodi:nodetypes="cc"
       inkscape:label="embb_user_1_link" />
    <path
       style="fill:none;fill-opacity:1;stroke:#0000ff;stroke-width:0.75;stroke-miterlimit:0;stroke-dasharray:none;stroke-opacity:1;marker-end:url(#marker2697-7-2-0-5)"
       d="M 74.083333,164.04167 58.7375,156.89792"
       id="urllc_traffic-3-0-2-9"
       sodipodi:nodetypes="cc"
       inkscape:label="embb_user_0_link" />
    <path
       style="fill:none;fill-opacity:1;stroke:#0000ff;stroke-width:0.75;stroke-miterlimit:0;stroke-dasharray:none;stroke-opacity:1;marker-end:url(#marker2697-7-2-2-8)"
       d="m 195.79167,47.625 h 15.875"
       id="urllc_traffic-3-0-4-0"
       sodipodi:nodetypes="cc"
       inkscape:label="embb_link" />
    <text
       xml:space="preserve"
       style="font-size:3.175px;fill:#000000;stroke:#000000;stroke-width:0;stroke-miterlimit:0;stroke-dasharray:none;stroke-opacity:1"
       x="63.189941"
       y="188.88614"
       id="base_station_0_label"><tspan
         sodipodi:role="line"
         id="tspan8557-6-2"
         style="stroke-width:0"
         x="63.189941"
         y="188.88614">Base station 0</tspan></text>
    <text
       xml:space="preserve"
       style="font-size:3.175px;fill:#000000;stroke:#000000;stroke-width:0;stroke-miterlimit:0;stroke-dasharray:none;stroke-opacity:1"
       x="110.81494"
       y="104.18847"
       id="base_station_1_label"><tspan
         sodipodi:role="line"
         id="tspan8557-6-2-0"
         style="stroke-width:0"
         x="110.81494"
         y="104.18847">Base station 1</tspan></text>
    <text
       xml:space="preserve"
       style="font-size:3.175px;fill:#000000;stroke:#000000;stroke-width:0;stroke-miterlimit:0;stroke-dasharray:none;stroke-opacity:1"
       x="158.69522"
       y="188.8877"
       id="base_station_2_label"><tspan
         sodipodi:role="line"
         id="tspan8557-6-2-06"
         style="stroke-width:0"
         x="158.69522"
         y="188.8877">Base station 2</tspan></text>
    <text
       xml:space="preserve"
       style="font-size:3.175px;fill:#000000;stroke:#000000;stroke-width:0;stroke-miterlimit:0;stroke-dasharray:none;stroke-opacity:1"
       x="29.237722"
       y="147.87573"
       id="embb_user_0_label"><tspan
         sodipodi:role="line"
         id="tspan8557-6-2-06-3"
         style="stroke-width:0"
         x="29.237722"
         y="147.87573">eMBB user 0</tspan></text>
    <text
       xml:space="preserve"
       style="font-size:3.175px;fill:#000000;stroke:#000000;stroke-width:0;stroke-miterlimit:0;stroke-dasharray:none;stroke-opacity:1"
       x="104.47864"
       y="152.45012"
       id="embb_user_1_label"><tspan
         sodipodi:role="line"
         id="tspan8557-6-2-06-3-4"
         style="stroke-width:0"
         x="104.47864"
         y="152.45012">eMBB user 1</tspan></text>
    <text
       xml:space="preserve"
       style="font-size:3.175px;fill:#000000;stroke:#000000;stroke-width:0;stroke-miterlimit:0;stroke-dasharray:none;stroke-opacity:1"
       x="203.3815"
       y="194.90752"
       id="embb_user_2_label"><tspan
         sodipodi:role="line"
         id="tspan8557-6-2-06-3-4-0"
         style="stroke-width:0"
         x="203.3815"
         y="194.90752">eMBB user 2</tspan></text>
    <text
       xml:space="preserve"
       style="font-size:3.175px;fill:#000000;stroke:#000000;stroke-width:0;stroke-miterlimit:0;stroke-dasharray:none;stroke-opacity:1"
       x="214.14816"
       y="48.729843"
       id="embb_user_2_label-8"><tspan
         sodipodi:role="line"
         id="tspan8557-6-2-06-3-4-0-7"
         style="stroke-width:0"
         x="214.14816"
         y="48.729843">eMBB traffic</tspan></text>
    <text
       xml:space="preserve"
       style="font-size:3.175px;fill:#000000;stroke:#000000;stroke-width:0;stroke-miterlimit:0;stroke-dasharray:none;stroke-opacity:1"
       x="214.03654"
       y="59.218609"
       id="embb_user_2_label-8-9"><tspan
         sodipodi:role="line"
         id="tspan8557-6-2-06-3-4-0-7-7"
         style="stroke-width:0"
         x="214.03654"
         y="59.218609">URLLC traffic</tspan></text>
    <text
       xml:space="preserve"
       style="font-size:3.175px;fill:#000000;stroke:#000000;stroke-width:0;stroke-miterlimit:0;stroke-dasharray:none;stroke-opacity:1"
       x="120.72404"
       y="207.95193"
       id="urllc_user_0_label"><tspan
         sodipodi:role="line"
         id="tspan8557-6-2-06-3-4-0-9"
         style="stroke-width:0"
         x="120.72404"
         y="207.95193">URLLC user 0</tspan></text>
    <text
       xml:space="preserve"
       style="font-size:3.175px;fill:#000000;stroke:#000000;stroke-width:0;stroke-miterlimit:0;stroke-dasharray:none;stroke-opacity:1"
       x="129.55385"
       y="73.584892"
       id="urllc_user_1_label"><tspan
         sodipodi:role="line"
         id="tspan8557-6-2-06-3-4-0-9-2"
         style="stroke-width:0"
         x="129.55385"
         y="73.584892">URLLC user 1</tspan></text>
  </g>
</svg>
